<svg width="180" height="86" viewBox="0 0 180 86" fill="none" xmlns="http://www.w3.org/2000/svg">
<path d="M58.8187 3.67117C54.8315 3.67117 44.6675 14.4543 29.822 17.4865C19.3353 19.6284 16.2444 30.9311 15.8638 38.2175C15.5305 58.0566 20.4559 91.2846 42.8234 65.4834C70.7827 33.232 62 3.67117 58.8187 3.67117Z" fill="#90BDBC" fill-opacity="0.69"/>
<path d="M15.0001 14.032C-5.49994 10.032 12.5 12.532 8.13181 51.1362C6.92839 61.7716 14.1971 69.2559 20.5662 72.8156C38.2182 81.877 70.2049 92.134 56.9359 60.6708C40.3496 21.3417 20.9889 15.2006 15.0001 14.032Z" fill="#90BDBC"/>
<path d="M34.1101 52.32C33.6781 52.32 33.2941 52.212 32.9581 51.996C32.6221 51.768 32.4541 51.468 32.4541 51.096C32.4541 50.832 32.5321 50.616 32.6881 50.448C32.8561 50.268 33.0721 50.172 33.3361 50.16C33.6361 50.136 33.8581 50.22 34.0021 50.412C34.1461 50.592 34.2181 50.772 34.2181 50.952C34.2181 51.156 34.1581 51.318 34.0381 51.438C34.1341 51.534 34.2361 51.582 34.3441 51.582C34.5481 51.582 34.7821 51.408 35.0461 51.06C35.3221 50.712 35.5861 50.178 35.8381 49.458C36.0901 48.738 36.3001 47.832 36.4681 46.74C36.6361 45.636 36.7201 44.334 36.7201 42.834V40.152H36.3421L35.0281 40.224V39.432H43.9381V40.026C43.4941 40.038 43.1821 40.14 43.0021 40.332C42.8341 40.524 42.7381 40.782 42.7141 41.106C42.7021 41.43 42.6961 41.808 42.6961 42.24V49.89C42.6961 50.214 42.6901 50.496 42.6781 50.736C42.6781 50.964 42.6661 51.156 42.6421 51.312C42.8581 51.3 43.0741 51.288 43.2901 51.276C43.5061 51.264 43.7221 51.252 43.9381 51.24V52.032H39.8701V51.438C40.3261 51.414 40.6381 51.312 40.8061 51.132C40.9861 50.94 41.0821 50.682 41.0941 50.358C41.1181 50.022 41.1301 49.644 41.1301 49.224V40.134L38.5921 40.152C38.1601 40.152 37.8901 40.272 37.7821 40.512C37.6741 40.74 37.6081 41.088 37.5841 41.556C37.5841 42.612 37.5481 43.656 37.4761 44.688C37.4041 45.72 37.2901 46.698 37.1341 47.622C36.9781 48.534 36.7681 49.344 36.5041 50.052C36.2401 50.76 35.9101 51.318 35.5141 51.726C35.1181 52.122 34.6501 52.32 34.1101 52.32ZM51.055 52.032C51.019 51.828 50.995 51.648 50.983 51.492C50.971 51.336 50.953 51.174 50.929 51.006C50.521 51.414 50.077 51.738 49.597 51.978C49.129 52.206 48.631 52.32 48.103 52.32C47.191 52.32 46.513 52.116 46.069 51.708C45.625 51.288 45.403 50.778 45.403 50.178C45.403 49.626 45.571 49.152 45.907 48.756C46.255 48.348 46.699 48.018 47.239 47.766C47.791 47.502 48.385 47.31 49.021 47.19C49.669 47.058 50.293 46.998 50.893 47.01V45.894C50.893 45.474 50.857 45.078 50.785 44.706C50.713 44.334 50.557 44.028 50.317 43.788C50.077 43.548 49.693 43.422 49.165 43.41C48.817 43.398 48.457 43.464 48.085 43.608C47.725 43.752 47.461 43.998 47.293 44.346C47.389 44.442 47.449 44.556 47.473 44.688C47.509 44.808 47.527 44.922 47.527 45.03C47.527 45.174 47.467 45.342 47.347 45.534C47.227 45.714 47.017 45.798 46.717 45.786C46.465 45.786 46.273 45.702 46.141 45.534C46.009 45.354 45.943 45.144 45.943 44.904C45.943 44.496 46.093 44.13 46.393 43.806C46.705 43.482 47.131 43.224 47.671 43.032C48.211 42.84 48.823 42.744 49.507 42.744C50.515 42.744 51.259 43.014 51.739 43.554C52.219 44.082 52.453 44.922 52.441 46.074C52.441 46.518 52.441 46.968 52.441 47.424C52.441 47.868 52.435 48.318 52.423 48.774C52.423 49.218 52.423 49.668 52.423 50.124C52.423 50.316 52.417 50.508 52.405 50.7C52.393 50.892 52.375 51.108 52.351 51.348C52.567 51.336 52.777 51.324 52.981 51.312C53.197 51.3 53.413 51.288 53.629 51.276V52.032H51.055ZM50.893 47.622C50.485 47.634 50.053 47.688 49.597 47.784C49.153 47.868 48.739 48 48.355 48.18C47.983 48.36 47.677 48.6 47.437 48.9C47.209 49.188 47.101 49.542 47.113 49.962C47.137 50.406 47.281 50.742 47.545 50.97C47.821 51.186 48.145 51.294 48.517 51.294C49.009 51.294 49.435 51.204 49.795 51.024C50.167 50.832 50.533 50.568 50.893 50.232C50.881 50.1 50.875 49.956 50.875 49.8C50.875 49.644 50.875 49.482 50.875 49.314C50.875 49.254 50.875 49.062 50.875 48.738C50.887 48.414 50.893 48.042 50.893 47.622ZM58.9863 52.302C58.2183 52.302 57.5163 52.098 56.8803 51.69C56.2563 51.27 55.7583 50.646 55.3863 49.818C55.0143 48.978 54.8283 47.922 54.8283 46.65C54.8283 45.594 54.9363 44.604 55.1523 43.68C55.3803 42.756 55.7343 41.958 56.2143 41.286C56.7063 40.602 57.3483 40.11 58.1403 39.81C58.4403 39.69 58.7463 39.606 59.0583 39.558C59.3703 39.498 59.6823 39.45 59.9943 39.414C60.3183 39.366 60.6363 39.3 60.9483 39.216C61.2603 39.12 61.4943 39.018 61.6503 38.91C61.8183 38.802 61.9503 38.616 62.0463 38.352L62.6763 38.55C62.5923 38.934 62.5083 39.264 62.4243 39.54C62.3403 39.816 62.2023 40.05 62.0103 40.242C61.8303 40.434 61.5303 40.602 61.1103 40.746C60.7863 40.854 60.4563 40.938 60.1203 40.998C59.7843 41.058 59.4603 41.112 59.1483 41.16C58.8363 41.196 58.5363 41.256 58.2483 41.34C57.3363 41.616 56.6703 42.156 56.2503 42.96C55.8423 43.752 55.6443 44.664 55.6563 45.696H55.7823C56.0583 44.988 56.4783 44.424 57.0423 44.004C57.6183 43.584 58.3443 43.374 59.2203 43.374C59.9763 43.374 60.6543 43.536 61.2543 43.86C61.8543 44.172 62.3283 44.64 62.6763 45.264C63.0363 45.876 63.2163 46.632 63.2163 47.532C63.2163 48.492 63.0243 49.332 62.6403 50.052C62.2683 50.772 61.7583 51.33 61.1103 51.726C60.4743 52.11 59.7663 52.302 58.9863 52.302ZM59.0583 51.618C59.6463 51.618 60.1143 51.45 60.4623 51.114C60.8223 50.766 61.0803 50.316 61.2363 49.764C61.3923 49.212 61.4703 48.636 61.4703 48.036C61.4703 47.376 61.3803 46.74 61.2003 46.128C61.0323 45.516 60.7563 45.012 60.3723 44.616C60.0003 44.22 59.5083 44.022 58.8963 44.022C58.3563 44.022 57.9123 44.184 57.5643 44.508C57.2163 44.832 56.9523 45.258 56.7723 45.786C56.6043 46.302 56.5203 46.86 56.5203 47.46C56.5203 48.324 56.6163 49.068 56.8083 49.692C57.0003 50.304 57.2823 50.778 57.6543 51.114C58.0383 51.45 58.5063 51.618 59.0583 51.618ZM69.1193 52.32C68.2793 52.32 67.5173 52.128 66.8333 51.744C66.1493 51.348 65.6033 50.808 65.1953 50.124C64.7993 49.428 64.6013 48.636 64.6013 47.748C64.6013 46.8 64.7993 45.948 65.1953 45.192C65.5913 44.436 66.1313 43.842 66.8153 43.41C67.4993 42.966 68.2673 42.744 69.1193 42.744C69.9593 42.744 70.7213 42.948 71.4053 43.356C72.0893 43.752 72.6353 44.292 73.0433 44.976C73.4513 45.66 73.6553 46.44 73.6553 47.316C73.6553 48.24 73.4513 49.086 73.0433 49.854C72.6473 50.61 72.1073 51.21 71.4233 51.654C70.7393 52.098 69.9713 52.32 69.1193 52.32ZM69.2633 51.6C69.8993 51.6 70.4033 51.42 70.7753 51.06C71.1473 50.7 71.4113 50.232 71.5673 49.656C71.7353 49.08 71.8193 48.474 71.8193 47.838C71.8193 47.298 71.7653 46.77 71.6573 46.254C71.5613 45.726 71.4053 45.252 71.1893 44.832C70.9733 44.4 70.6913 44.058 70.3433 43.806C70.0073 43.554 69.5993 43.428 69.1193 43.428C68.4953 43.428 67.9853 43.608 67.5893 43.968C67.1933 44.328 66.8993 44.796 66.7073 45.372C66.5273 45.948 66.4373 46.566 66.4373 47.226C66.4373 47.97 66.5393 48.678 66.7433 49.35C66.9473 50.01 67.2593 50.55 67.6793 50.97C68.0993 51.39 68.6273 51.6 69.2633 51.6ZM75.0226 56.622V56.082C75.3946 56.082 75.6526 55.986 75.7966 55.794C75.9406 55.614 76.0246 55.356 76.0486 55.02C76.0726 54.696 76.0846 54.318 76.0846 53.886L76.1206 45.192C76.1206 45 76.1206 44.808 76.1206 44.616C76.1326 44.424 76.1566 44.226 76.1926 44.022C75.9766 44.034 75.7606 44.046 75.5446 44.058C75.3406 44.07 75.1306 44.082 74.9146 44.094V43.338C75.4426 43.338 75.8386 43.314 76.1026 43.266C76.3786 43.218 76.5766 43.158 76.6966 43.086C76.8286 43.014 76.9366 42.936 77.0206 42.852H77.5606C77.5726 42.972 77.5846 43.116 77.5966 43.284C77.6086 43.44 77.6206 43.62 77.6326 43.824C77.9926 43.5 78.4186 43.242 78.9106 43.05C79.4146 42.846 79.9186 42.744 80.4226 42.744C81.1186 42.744 81.7666 42.924 82.3666 43.284C82.9666 43.644 83.4526 44.16 83.8246 44.832C84.1966 45.492 84.3826 46.284 84.3826 47.208C84.3826 48.228 84.1666 49.122 83.7346 49.89C83.3146 50.658 82.7566 51.258 82.0606 51.69C81.3646 52.11 80.6086 52.32 79.7926 52.32C79.3726 52.32 78.9826 52.266 78.6226 52.158C78.2746 52.062 77.9446 51.918 77.6326 51.726V54.714C77.6326 54.954 77.6266 55.164 77.6146 55.344C77.6146 55.536 77.5966 55.734 77.5606 55.938C77.7526 55.926 77.9386 55.914 78.1186 55.902C78.3106 55.902 78.5026 55.896 78.6946 55.884V56.622H75.0226ZM79.7566 51.6C80.3326 51.6 80.8246 51.426 81.2326 51.078C81.6526 50.718 81.9706 50.232 82.1866 49.62C82.4146 48.996 82.5286 48.288 82.5286 47.496C82.5286 46.848 82.4326 46.23 82.2406 45.642C82.0606 45.042 81.7666 44.556 81.3586 44.184C80.9626 43.812 80.4346 43.626 79.7746 43.626C79.3666 43.626 78.9706 43.728 78.5866 43.932C78.2146 44.124 77.9026 44.358 77.6506 44.634C77.6506 44.682 77.6506 44.754 77.6506 44.85C77.6626 44.934 77.6686 45.09 77.6686 45.318C77.6686 45.534 77.6686 45.864 77.6686 46.308C77.6686 46.74 77.6626 47.328 77.6506 48.072C77.6506 48.816 77.6506 49.758 77.6506 50.898C77.9506 51.126 78.2746 51.3 78.6226 51.42C78.9826 51.54 79.3606 51.6 79.7566 51.6ZM91.3968 52.032C91.3608 51.828 91.3368 51.648 91.3248 51.492C91.3128 51.336 91.2948 51.174 91.2708 51.006C90.8628 51.414 90.4188 51.738 89.9388 51.978C89.4708 52.206 88.9728 52.32 88.4448 52.32C87.5328 52.32 86.8548 52.116 86.4108 51.708C85.9668 51.288 85.7448 50.778 85.7448 50.178C85.7448 49.626 85.9128 49.152 86.2488 48.756C86.5968 48.348 87.0408 48.018 87.5808 47.766C88.1328 47.502 88.7268 47.31 89.3628 47.19C90.0108 47.058 90.6348 46.998 91.2348 47.01V45.894C91.2348 45.474 91.1988 45.078 91.1268 44.706C91.0548 44.334 90.8988 44.028 90.6588 43.788C90.4188 43.548 90.0348 43.422 89.5068 43.41C89.1588 43.398 88.7988 43.464 88.4268 43.608C88.0668 43.752 87.8028 43.998 87.6348 44.346C87.7308 44.442 87.7908 44.556 87.8148 44.688C87.8508 44.808 87.8688 44.922 87.8688 45.03C87.8688 45.174 87.8088 45.342 87.6888 45.534C87.5688 45.714 87.3588 45.798 87.0588 45.786C86.8068 45.786 86.6148 45.702 86.4828 45.534C86.3508 45.354 86.2848 45.144 86.2848 44.904C86.2848 44.496 86.4348 44.13 86.7348 43.806C87.0468 43.482 87.4728 43.224 88.0128 43.032C88.5528 42.84 89.1648 42.744 89.8488 42.744C90.8568 42.744 91.6008 43.014 92.0808 43.554C92.5608 44.082 92.7948 44.922 92.7828 46.074C92.7828 46.518 92.7828 46.968 92.7828 47.424C92.7828 47.868 92.7768 48.318 92.7648 48.774C92.7648 49.218 92.7648 49.668 92.7648 50.124C92.7648 50.316 92.7588 50.508 92.7468 50.7C92.7348 50.892 92.7168 51.108 92.6928 51.348C92.9088 51.336 93.1188 51.324 93.3228 51.312C93.5388 51.3 93.7548 51.288 93.9708 51.276V52.032H91.3968ZM91.2348 47.622C90.8268 47.634 90.3948 47.688 89.9388 47.784C89.4948 47.868 89.0808 48 88.6968 48.18C88.3248 48.36 88.0188 48.6 87.7788 48.9C87.5508 49.188 87.4428 49.542 87.4548 49.962C87.4788 50.406 87.6228 50.742 87.8868 50.97C88.1628 51.186 88.4868 51.294 88.8588 51.294C89.3508 51.294 89.7768 51.204 90.1368 51.024C90.5088 50.832 90.8748 50.568 91.2348 50.232C91.2228 50.1 91.2168 49.956 91.2168 49.8C91.2168 49.644 91.2168 49.482 91.2168 49.314C91.2168 49.254 91.2168 49.062 91.2168 48.738C91.2288 48.414 91.2348 48.042 91.2348 47.622ZM97.0061 52.032V51.492C97.3781 51.492 97.6361 51.402 97.7801 51.222C97.9241 51.03 98.0081 50.772 98.0321 50.448C98.0681 50.112 98.0861 49.728 98.0861 49.296V44.94C98.0861 44.7 98.0861 44.502 98.0861 44.346C98.0981 44.178 98.1221 43.992 98.1581 43.788H96.8801C96.4001 43.788 96.0461 43.926 95.8181 44.202C95.6021 44.478 95.4941 44.994 95.4941 45.75H94.8101L94.8821 43.032H102.838L102.928 45.75H102.244C102.232 44.994 102.118 44.478 101.902 44.202C101.698 43.926 101.314 43.788 100.75 43.788H99.6341V50.124C99.6341 50.364 99.6281 50.58 99.6161 50.772C99.6161 50.952 99.5981 51.144 99.5621 51.348L100.696 51.294V52.032H97.0061ZM108.582 52.32C107.742 52.32 106.98 52.128 106.296 51.744C105.612 51.348 105.066 50.808 104.658 50.124C104.262 49.428 104.064 48.636 104.064 47.748C104.064 46.8 104.262 45.948 104.658 45.192C105.054 44.436 105.594 43.842 106.278 43.41C106.962 42.966 107.73 42.744 108.582 42.744C109.422 42.744 110.184 42.948 110.868 43.356C111.552 43.752 112.098 44.292 112.506 44.976C112.914 45.66 113.118 46.44 113.118 47.316C113.118 48.24 112.914 49.086 112.506 49.854C112.11 50.61 111.57 51.21 110.886 51.654C110.202 52.098 109.434 52.32 108.582 52.32ZM108.726 51.6C109.362 51.6 109.866 51.42 110.238 51.06C110.61 50.7 110.874 50.232 111.03 49.656C111.198 49.08 111.282 48.474 111.282 47.838C111.282 47.298 111.228 46.77 111.12 46.254C111.024 45.726 110.868 45.252 110.652 44.832C110.436 44.4 110.154 44.058 109.806 43.806C109.47 43.554 109.062 43.428 108.582 43.428C107.958 43.428 107.448 43.608 107.052 43.968C106.656 44.328 106.362 44.796 106.17 45.372C105.99 45.948 105.9 46.566 105.9 47.226C105.9 47.97 106.002 48.678 106.206 49.35C106.41 50.01 106.722 50.55 107.142 50.97C107.562 51.39 108.09 51.6 108.726 51.6ZM114.485 56.622V56.082C114.857 56.082 115.115 55.986 115.259 55.794C115.403 55.614 115.487 55.356 115.511 55.02C115.535 54.696 115.547 54.318 115.547 53.886L115.583 45.192C115.583 45 115.583 44.808 115.583 44.616C115.595 44.424 115.619 44.226 115.655 44.022C115.439 44.034 115.223 44.046 115.007 44.058C114.803 44.07 114.593 44.082 114.377 44.094V43.338C114.905 43.338 115.301 43.314 115.565 43.266C115.841 43.218 116.039 43.158 116.159 43.086C116.291 43.014 116.399 42.936 116.483 42.852H117.023C117.035 42.972 117.047 43.116 117.059 43.284C117.071 43.44 117.083 43.62 117.095 43.824C117.455 43.5 117.881 43.242 118.373 43.05C118.877 42.846 119.381 42.744 119.885 42.744C120.581 42.744 121.229 42.924 121.829 43.284C122.429 43.644 122.915 44.16 123.287 44.832C123.659 45.492 123.845 46.284 123.845 47.208C123.845 48.228 123.629 49.122 123.197 49.89C122.777 50.658 122.219 51.258 121.523 51.69C120.827 52.11 120.071 52.32 119.255 52.32C118.835 52.32 118.445 52.266 118.085 52.158C117.737 52.062 117.407 51.918 117.095 51.726V54.714C117.095 54.954 117.089 55.164 117.077 55.344C117.077 55.536 117.059 55.734 117.023 55.938C117.215 55.926 117.401 55.914 117.581 55.902C117.773 55.902 117.965 55.896 118.157 55.884V56.622H114.485ZM119.219 51.6C119.795 51.6 120.287 51.426 120.695 51.078C121.115 50.718 121.433 50.232 121.649 49.62C121.877 48.996 121.991 48.288 121.991 47.496C121.991 46.848 121.895 46.23 121.703 45.642C121.523 45.042 121.229 44.556 120.821 44.184C120.425 43.812 119.897 43.626 119.237 43.626C118.829 43.626 118.433 43.728 118.049 43.932C117.677 44.124 117.365 44.358 117.113 44.634C117.113 44.682 117.113 44.754 117.113 44.85C117.125 44.934 117.131 45.09 117.131 45.318C117.131 45.534 117.131 45.864 117.131 46.308C117.131 46.74 117.125 47.328 117.113 48.072C117.113 48.816 117.113 49.758 117.113 50.898C117.413 51.126 117.737 51.3 118.085 51.42C118.445 51.54 118.823 51.6 119.219 51.6ZM129.096 43.572C128.724 43.572 128.466 43.668 128.322 43.86C128.178 44.04 128.094 44.298 128.07 44.634C128.046 44.958 128.028 45.336 128.016 45.768L127.998 50.124C127.998 50.364 127.992 50.58 127.98 50.772C127.98 50.952 127.962 51.144 127.926 51.348C128.118 51.336 128.304 51.33 128.484 51.33C128.676 51.318 128.868 51.306 129.06 51.294V52.032H125.388V51.492C125.76 51.492 126.018 51.402 126.162 51.222C126.306 51.03 126.39 50.772 126.414 50.448C126.45 50.112 126.468 49.728 126.468 49.296V44.94C126.468 44.7 126.468 44.49 126.468 44.31C126.48 44.118 126.504 43.92 126.54 43.716C126.348 43.728 126.156 43.74 125.964 43.752C125.784 43.752 125.598 43.758 125.406 43.77V43.032H129.096V43.572ZM132.624 43.896L133.2 44.328L127.674 51.258L127.062 50.754L132.624 43.896ZM135.09 43.572C134.73 43.572 134.472 43.668 134.316 43.86C134.172 44.04 134.088 44.298 134.064 44.634C134.04 44.958 134.028 45.336 134.028 45.768L133.992 50.124C133.992 50.364 133.986 50.58 133.974 50.772C133.974 50.952 133.962 51.144 133.938 51.348C134.13 51.336 134.316 51.33 134.496 51.33C134.688 51.318 134.88 51.306 135.072 51.294V52.032H131.382V51.492C131.754 51.492 132.012 51.402 132.156 51.222C132.3 51.03 132.384 50.772 132.408 50.448C132.444 50.112 132.462 49.728 132.462 49.296L132.48 44.94C132.48 44.7 132.48 44.49 132.48 44.31C132.492 44.118 132.516 43.92 132.552 43.716C132.36 43.728 132.168 43.74 131.976 43.752C131.796 43.752 131.61 43.758 131.418 43.77V43.032H135.09V43.572ZM136.187 52.032V51.492C136.463 51.492 136.697 51.42 136.889 51.276C137.093 51.12 137.303 50.898 137.519 50.61C137.747 50.322 138.029 49.968 138.365 49.548L139.013 48.738C139.145 48.57 139.277 48.45 139.409 48.378C139.541 48.294 139.685 48.228 139.841 48.18C138.929 48.024 138.287 47.718 137.915 47.262C137.555 46.806 137.375 46.284 137.375 45.696C137.375 45.12 137.513 44.634 137.789 44.238C138.065 43.842 138.425 43.542 138.869 43.338C139.325 43.134 139.811 43.032 140.327 43.032H144.881V43.572C144.593 43.572 144.371 43.638 144.215 43.77C144.059 43.89 143.951 44.064 143.891 44.292C143.831 44.508 143.801 44.778 143.801 45.102V50.124C143.801 50.364 143.795 50.58 143.783 50.772C143.783 50.952 143.765 51.144 143.729 51.348L144.863 51.294V52.032H141.191V51.492C141.659 51.492 141.953 51.336 142.073 51.024C142.193 50.7 142.253 50.322 142.253 49.89V48.432L141.011 48.45C140.855 48.594 140.687 48.786 140.507 49.026C140.327 49.266 140.153 49.506 139.985 49.746C139.829 49.986 139.697 50.184 139.589 50.34C139.289 50.76 138.965 51.15 138.617 51.51C138.269 51.858 137.933 52.032 137.609 52.032H136.187ZM140.975 47.784C141.239 47.784 141.467 47.784 141.659 47.784C141.863 47.772 142.061 47.76 142.253 47.748V44.778C142.253 44.538 142.253 44.34 142.253 44.184C142.265 44.016 142.277 43.878 142.289 43.77C142.097 43.746 141.851 43.74 141.551 43.752C141.251 43.752 141.059 43.752 140.975 43.752C140.423 43.752 139.949 43.896 139.553 44.184C139.169 44.472 138.977 44.964 138.977 45.66C138.977 46.248 139.151 46.752 139.499 47.172C139.859 47.58 140.351 47.784 140.975 47.784Z" fill="#2B4A4A"/>
<path d="M76.192 65.446C76.072 64.318 75.676 63.442 75.004 62.818C74.344 62.194 73.492 61.882 72.448 61.882C71.812 61.882 71.212 62.02 70.648 62.296C70.096 62.56 69.61 62.944 69.19 63.448C68.77 63.952 68.44 64.558 68.2 65.266C67.96 65.974 67.84 66.772 67.84 67.66C67.84 68.788 68.056 69.784 68.488 70.648C68.92 71.512 69.502 72.184 70.234 72.664C70.966 73.144 71.776 73.384 72.664 73.384C73.444 73.384 74.212 73.21 74.968 72.862C75.724 72.502 76.342 71.986 76.822 71.314L77.29 71.692C76.774 72.4 76.216 72.946 75.616 73.33C75.016 73.714 74.416 73.972 73.816 74.104C73.228 74.248 72.688 74.32 72.196 74.32C71.296 74.32 70.468 74.158 69.712 73.834C68.968 73.51 68.32 73.06 67.768 72.484C67.228 71.896 66.808 71.218 66.508 70.45C66.22 69.67 66.076 68.83 66.076 67.93C66.076 67.078 66.202 66.25 66.454 65.446C66.718 64.642 67.108 63.916 67.624 63.268C68.14 62.62 68.788 62.104 69.568 61.72C70.36 61.336 71.278 61.144 72.322 61.144C72.994 61.144 73.63 61.234 74.23 61.414C74.83 61.594 75.406 61.87 75.958 62.242L75.868 61.27H76.84V65.446H76.192ZM78.626 74.032V73.492C78.998 73.492 79.256 73.402 79.4 73.222C79.544 73.03 79.628 72.772 79.652 72.448C79.688 72.112 79.706 71.728 79.706 71.296V66.94C79.706 66.7 79.706 66.49 79.706 66.31C79.718 66.118 79.742 65.92 79.778 65.716L78.644 65.77V65.032H88.112V65.572C87.752 65.572 87.494 65.668 87.338 65.86C87.194 66.04 87.11 66.298 87.086 66.634C87.062 66.958 87.05 67.336 87.05 67.768L87.014 72.124C87.014 72.364 87.008 72.58 86.996 72.772C86.996 72.952 86.978 73.144 86.942 73.348L88.076 73.294V74.032H84.386V73.492C84.758 73.492 85.016 73.402 85.16 73.222C85.304 73.03 85.388 72.772 85.412 72.448C85.448 72.112 85.466 71.728 85.466 71.296L85.484 66.94C85.484 66.7 85.484 66.49 85.484 66.31C85.496 66.118 85.52 65.92 85.556 65.716L82.352 65.752C81.98 65.752 81.722 65.83 81.578 65.986C81.434 66.142 81.35 66.37 81.326 66.67C81.302 66.97 81.284 67.336 81.272 67.768L81.254 72.124C81.254 72.364 81.248 72.58 81.236 72.772C81.236 72.952 81.218 73.144 81.182 73.348L82.316 73.294V74.032H78.626ZM94.1642 74.32C93.3242 74.32 92.5622 74.128 91.8782 73.744C91.1942 73.348 90.6482 72.808 90.2402 72.124C89.8442 71.428 89.6462 70.636 89.6462 69.748C89.6462 68.8 89.8442 67.948 90.2402 67.192C90.6362 66.436 91.1762 65.842 91.8602 65.41C92.5442 64.966 93.3122 64.744 94.1642 64.744C95.0042 64.744 95.7662 64.948 96.4502 65.356C97.1342 65.752 97.6802 66.292 98.0882 66.976C98.4962 67.66 98.7002 68.44 98.7002 69.316C98.7002 70.24 98.4962 71.086 98.0882 71.854C97.6922 72.61 97.1522 73.21 96.4682 73.654C95.7842 74.098 95.0162 74.32 94.1642 74.32ZM94.3082 73.6C94.9442 73.6 95.4482 73.42 95.8202 73.06C96.1922 72.7 96.4562 72.232 96.6122 71.656C96.7802 71.08 96.8642 70.474 96.8642 69.838C96.8642 69.298 96.8102 68.77 96.7022 68.254C96.6062 67.726 96.4502 67.252 96.2342 66.832C96.0182 66.4 95.7362 66.058 95.3882 65.806C95.0522 65.554 94.6442 65.428 94.1642 65.428C93.5402 65.428 93.0302 65.608 92.6342 65.968C92.2382 66.328 91.9442 66.796 91.7522 67.372C91.5722 67.948 91.4822 68.566 91.4822 69.226C91.4822 69.97 91.5842 70.678 91.7882 71.35C91.9922 72.01 92.3042 72.55 92.7242 72.97C93.1442 73.39 93.6722 73.6 94.3082 73.6ZM100.05 74.032V73.492C100.422 73.492 100.68 73.402 100.824 73.222C100.968 73.03 101.052 72.772 101.076 72.448C101.112 72.112 101.13 71.728 101.13 71.296L101.148 66.94C101.148 66.7 101.148 66.49 101.148 66.31C101.16 66.118 101.184 65.92 101.22 65.716C101.028 65.728 100.836 65.74 100.644 65.752C100.464 65.752 100.278 65.758 100.086 65.77V65.032H103.758V65.572C103.398 65.572 103.14 65.668 102.984 65.86C102.84 66.04 102.756 66.298 102.732 66.634C102.708 66.958 102.696 67.336 102.696 67.768L102.678 68.956H103.38L105.576 66.652C105.78 66.448 105.966 66.268 106.134 66.112C106.302 65.944 106.47 65.806 106.638 65.698L105.414 65.752V65.032H108.689V65.572C108.282 65.608 107.898 65.74 107.538 65.968C107.19 66.184 106.866 66.43 106.566 66.706C106.278 66.982 106.026 67.234 105.81 67.462L104.406 68.938C104.646 69.046 104.85 69.184 105.018 69.352C105.186 69.52 105.354 69.706 105.522 69.91L106.8 71.548C106.86 71.62 106.962 71.758 107.106 71.962C107.262 72.166 107.442 72.388 107.646 72.628C107.862 72.868 108.084 73.072 108.312 73.24C108.552 73.408 108.774 73.492 108.978 73.492V74.032H107.34C107.004 74.032 106.686 73.858 106.386 73.51C106.086 73.162 105.768 72.772 105.432 72.34C105.12 71.908 104.838 71.518 104.586 71.17C104.346 70.81 104.124 70.498 103.92 70.234C103.728 69.97 103.554 69.766 103.398 69.622L102.678 69.658L102.66 72.124C102.66 72.364 102.654 72.58 102.642 72.772C102.642 72.952 102.624 73.144 102.588 73.348C102.78 73.336 102.966 73.33 103.146 73.33C103.338 73.318 103.53 73.306 103.722 73.294V74.032H100.05ZM114.238 74.32C113.398 74.32 112.636 74.128 111.952 73.744C111.268 73.348 110.722 72.808 110.314 72.124C109.918 71.428 109.72 70.636 109.72 69.748C109.72 68.8 109.918 67.948 110.314 67.192C110.71 66.436 111.25 65.842 111.934 65.41C112.618 64.966 113.386 64.744 114.238 64.744C115.078 64.744 115.84 64.948 116.524 65.356C117.208 65.752 117.754 66.292 118.162 66.976C118.57 67.66 118.774 68.44 118.774 69.316C118.774 70.24 118.57 71.086 118.162 71.854C117.766 72.61 117.226 73.21 116.542 73.654C115.858 74.098 115.09 74.32 114.238 74.32ZM114.382 73.6C115.018 73.6 115.522 73.42 115.894 73.06C116.266 72.7 116.53 72.232 116.686 71.656C116.854 71.08 116.938 70.474 116.938 69.838C116.938 69.298 116.884 68.77 116.776 68.254C116.68 67.726 116.524 67.252 116.308 66.832C116.092 66.4 115.81 66.058 115.462 65.806C115.126 65.554 114.718 65.428 114.238 65.428C113.614 65.428 113.104 65.608 112.708 65.968C112.312 66.328 112.018 66.796 111.826 67.372C111.646 67.948 111.556 68.566 111.556 69.226C111.556 69.97 111.658 70.678 111.862 71.35C112.066 72.01 112.378 72.55 112.798 72.97C113.218 73.39 113.746 73.6 114.382 73.6ZM124.012 65.572C123.64 65.572 123.382 65.668 123.238 65.86C123.094 66.04 123.01 66.298 122.986 66.634C122.962 66.958 122.944 67.336 122.932 67.768L122.914 72.124C122.914 72.364 122.908 72.58 122.896 72.772C122.896 72.952 122.878 73.144 122.842 73.348C123.034 73.336 123.22 73.33 123.4 73.33C123.592 73.318 123.784 73.306 123.976 73.294V74.032H120.304V73.492C120.676 73.492 120.934 73.402 121.078 73.222C121.222 73.03 121.306 72.772 121.33 72.448C121.366 72.112 121.384 71.728 121.384 71.296V66.94C121.384 66.7 121.384 66.49 121.384 66.31C121.396 66.118 121.42 65.92 121.456 65.716C121.264 65.728 121.072 65.74 120.88 65.752C120.7 65.752 120.514 65.758 120.322 65.77V65.032H124.012V65.572ZM127.54 65.896L128.116 66.328L122.59 73.258L121.978 72.754L127.54 65.896ZM130.006 65.572C129.646 65.572 129.388 65.668 129.232 65.86C129.088 66.04 129.004 66.298 128.98 66.634C128.956 66.958 128.944 67.336 128.944 67.768L128.908 72.124C128.908 72.364 128.902 72.58 128.89 72.772C128.89 72.952 128.878 73.144 128.854 73.348C129.046 73.336 129.232 73.33 129.412 73.33C129.604 73.318 129.796 73.306 129.988 73.294V74.032H126.298V73.492C126.67 73.492 126.928 73.402 127.072 73.222C127.216 73.03 127.3 72.772 127.324 72.448C127.36 72.112 127.378 71.728 127.378 71.296L127.396 66.94C127.396 66.7 127.396 66.49 127.396 66.31C127.408 66.118 127.432 65.92 127.468 65.716C127.276 65.728 127.084 65.74 126.892 65.752C126.712 65.752 126.526 65.758 126.334 65.77V65.032H130.006V65.572ZM125.164 63.646C124.468 63.646 123.874 63.508 123.382 63.232C122.89 62.944 122.644 62.56 122.644 62.08C122.644 61.864 122.704 61.678 122.824 61.522C122.944 61.354 123.118 61.264 123.346 61.252C123.55 61.24 123.706 61.282 123.814 61.378C123.922 61.462 123.994 61.564 124.03 61.684C124.078 61.792 124.102 61.894 124.102 61.99C124.102 62.086 124.09 62.194 124.066 62.314C124.042 62.434 124 62.542 123.94 62.638C124 62.758 124.156 62.848 124.408 62.908C124.672 62.956 124.924 62.98 125.164 62.98C125.404 62.98 125.65 62.956 125.902 62.908C126.154 62.848 126.316 62.758 126.388 62.638C126.328 62.542 126.286 62.434 126.262 62.314C126.238 62.194 126.226 62.086 126.226 61.99C126.226 61.894 126.244 61.792 126.28 61.684C126.328 61.564 126.406 61.462 126.514 61.378C126.622 61.282 126.778 61.24 126.982 61.252C127.198 61.264 127.366 61.354 127.486 61.522C127.618 61.678 127.684 61.864 127.684 62.08C127.684 62.56 127.438 62.944 126.946 63.232C126.454 63.508 125.86 63.646 125.164 63.646ZM135.981 74.32C135.177 74.32 134.433 74.14 133.749 73.78C133.077 73.408 132.537 72.88 132.129 72.196C131.733 71.5 131.535 70.666 131.535 69.694C131.535 69.07 131.649 68.464 131.877 67.876C132.105 67.288 132.423 66.76 132.831 66.292C133.251 65.812 133.749 65.434 134.325 65.158C134.901 64.882 135.537 64.744 136.233 64.744C136.905 64.744 137.487 64.846 137.979 65.05C138.483 65.254 138.873 65.524 139.149 65.86C139.425 66.196 139.563 66.562 139.563 66.958C139.563 67.222 139.491 67.45 139.347 67.642C139.203 67.822 138.993 67.912 138.717 67.912C138.417 67.924 138.201 67.834 138.069 67.642C137.949 67.438 137.889 67.258 137.889 67.102C137.889 66.982 137.907 66.862 137.943 66.742C137.979 66.61 138.051 66.49 138.159 66.382C138.063 66.094 137.895 65.884 137.655 65.752C137.415 65.608 137.163 65.518 136.899 65.482C136.647 65.434 136.437 65.41 136.269 65.41C135.453 65.41 134.763 65.74 134.199 66.4C133.647 67.048 133.371 67.996 133.371 69.244C133.371 70.048 133.497 70.762 133.749 71.386C134.013 72.01 134.379 72.502 134.847 72.862C135.315 73.21 135.855 73.384 136.467 73.384C137.031 73.384 137.571 73.234 138.087 72.934C138.603 72.634 139.005 72.268 139.293 71.836L139.761 72.196C139.449 72.7 139.071 73.108 138.627 73.42C138.195 73.732 137.745 73.96 137.277 74.104C136.821 74.248 136.389 74.32 135.981 74.32ZM142.969 74.032V73.492C143.341 73.492 143.599 73.402 143.743 73.222C143.887 73.03 143.971 72.772 143.995 72.448C144.031 72.112 144.049 71.728 144.049 71.296V66.94C144.049 66.7 144.049 66.502 144.049 66.346C144.061 66.178 144.085 65.992 144.121 65.788H142.843C142.363 65.788 142.009 65.926 141.781 66.202C141.565 66.478 141.457 66.994 141.457 67.75H140.773L140.845 65.032H148.801L148.891 67.75H148.207C148.195 66.994 148.081 66.478 147.865 66.202C147.661 65.926 147.277 65.788 146.713 65.788H145.597V72.124C145.597 72.364 145.591 72.58 145.579 72.772C145.579 72.952 145.561 73.144 145.525 73.348L146.659 73.294V74.032H142.969ZM150.081 74.032V73.492C150.525 73.48 150.813 73.342 150.945 73.078C151.089 72.802 151.161 72.43 151.161 71.962V66.76C151.161 66.544 151.167 66.352 151.179 66.184C151.191 66.016 151.209 65.86 151.233 65.716C151.041 65.728 150.849 65.74 150.657 65.752C150.477 65.752 150.291 65.758 150.099 65.77V65.032C150.423 65.032 150.837 65.032 151.341 65.032C151.845 65.02 152.397 65.014 152.997 65.014C153.609 65.014 154.215 65.014 154.815 65.014C155.655 65.014 156.339 65.188 156.867 65.536C157.407 65.872 157.671 66.388 157.659 67.084C157.647 67.564 157.479 68.014 157.155 68.434C156.843 68.842 156.345 69.13 155.661 69.298C156.477 69.334 157.095 69.556 157.515 69.964C157.935 70.36 158.145 70.864 158.145 71.476C158.145 72.016 158.001 72.478 157.713 72.862C157.425 73.246 157.047 73.54 156.579 73.744C156.111 73.936 155.607 74.032 155.067 74.032H150.081ZM152.673 73.294C152.805 73.306 152.979 73.312 153.195 73.312C153.423 73.312 153.633 73.312 153.825 73.312C154.029 73.312 154.155 73.312 154.203 73.312C154.875 73.312 155.409 73.174 155.805 72.898C156.213 72.61 156.417 72.154 156.417 71.53C156.417 70.894 156.195 70.444 155.751 70.18C155.307 69.904 154.791 69.766 154.203 69.766C153.951 69.766 153.687 69.772 153.411 69.784C153.147 69.784 152.913 69.79 152.709 69.802V72.286C152.709 72.514 152.703 72.712 152.691 72.88C152.691 73.048 152.685 73.186 152.673 73.294ZM152.709 69.118L154.059 69.1C154.551 69.088 154.941 68.986 155.229 68.794C155.517 68.59 155.721 68.344 155.841 68.056C155.961 67.756 156.015 67.462 156.003 67.174C156.003 66.754 155.913 66.436 155.733 66.22C155.553 66.004 155.319 65.86 155.031 65.788C154.755 65.704 154.455 65.662 154.131 65.662C153.699 65.662 153.351 65.74 153.087 65.896C152.835 66.052 152.709 66.388 152.709 66.904V69.118ZM163.176 65.572C162.804 65.572 162.546 65.668 162.402 65.86C162.258 66.04 162.174 66.298 162.15 66.634C162.126 66.958 162.108 67.336 162.096 67.768L162.078 72.124C162.078 72.364 162.072 72.58 162.06 72.772C162.06 72.952 162.042 73.144 162.006 73.348C162.198 73.336 162.384 73.33 162.564 73.33C162.756 73.318 162.948 73.306 163.14 73.294V74.032H159.468V73.492C159.84 73.492 160.098 73.402 160.242 73.222C160.386 73.03 160.47 72.772 160.494 72.448C160.53 72.112 160.548 71.728 160.548 71.296V66.94C160.548 66.7 160.548 66.49 160.548 66.31C160.56 66.118 160.584 65.92 160.62 65.716C160.428 65.728 160.236 65.74 160.044 65.752C159.864 65.752 159.678 65.758 159.486 65.77V65.032H163.176V65.572ZM166.704 65.896L167.28 66.328L161.754 73.258L161.142 72.754L166.704 65.896ZM169.17 65.572C168.81 65.572 168.552 65.668 168.396 65.86C168.252 66.04 168.168 66.298 168.144 66.634C168.12 66.958 168.108 67.336 168.108 67.768L168.072 72.124C168.072 72.364 168.066 72.58 168.054 72.772C168.054 72.952 168.042 73.144 168.018 73.348C168.21 73.336 168.396 73.33 168.576 73.33C168.768 73.318 168.96 73.306 169.152 73.294V74.032H165.462V73.492C165.834 73.492 166.092 73.402 166.236 73.222C166.38 73.03 166.464 72.772 166.488 72.448C166.524 72.112 166.542 71.728 166.542 71.296L166.56 66.94C166.56 66.7 166.56 66.49 166.56 66.31C166.572 66.118 166.596 65.92 166.632 65.716C166.44 65.728 166.248 65.74 166.056 65.752C165.876 65.752 165.69 65.758 165.498 65.77V65.032H169.17V65.572ZM170.267 74.032V73.492C170.543 73.492 170.777 73.42 170.969 73.276C171.173 73.12 171.383 72.898 171.599 72.61C171.827 72.322 172.109 71.968 172.445 71.548L173.093 70.738C173.225 70.57 173.357 70.45 173.489 70.378C173.621 70.294 173.765 70.228 173.921 70.18C173.009 70.024 172.367 69.718 171.995 69.262C171.635 68.806 171.455 68.284 171.455 67.696C171.455 67.12 171.593 66.634 171.869 66.238C172.145 65.842 172.505 65.542 172.949 65.338C173.405 65.134 173.891 65.032 174.407 65.032H178.961V65.572C178.673 65.572 178.451 65.638 178.295 65.77C178.139 65.89 178.031 66.064 177.971 66.292C177.911 66.508 177.881 66.778 177.881 67.102V72.124C177.881 72.364 177.875 72.58 177.863 72.772C177.863 72.952 177.845 73.144 177.809 73.348L178.943 73.294V74.032H175.271V73.492C175.739 73.492 176.033 73.336 176.153 73.024C176.273 72.7 176.333 72.322 176.333 71.89V70.432L175.091 70.45C174.935 70.594 174.767 70.786 174.587 71.026C174.407 71.266 174.233 71.506 174.065 71.746C173.909 71.986 173.777 72.184 173.669 72.34C173.369 72.76 173.045 73.15 172.697 73.51C172.349 73.858 172.013 74.032 171.689 74.032H170.267ZM175.055 69.784C175.319 69.784 175.547 69.784 175.739 69.784C175.943 69.772 176.141 69.76 176.333 69.748V66.778C176.333 66.538 176.333 66.34 176.333 66.184C176.345 66.016 176.357 65.878 176.369 65.77C176.177 65.746 175.931 65.74 175.631 65.752C175.331 65.752 175.139 65.752 175.055 65.752C174.503 65.752 174.029 65.896 173.633 66.184C173.249 66.472 173.057 66.964 173.057 67.66C173.057 68.248 173.231 68.752 173.579 69.172C173.939 69.58 174.431 69.784 175.055 69.784Z" fill="#2B4A4A"/>
</svg>
